# xmcd CD database file
# Copyright (C) 1995-1998 Ti Kan
#
# Track frame offsets:
#	150
#	14220
#	33770
#	45575
#	63760
#	84520
#	102070
#	119340
#	137620
#	151615
#	163215
#	178580
#	194395
#	210605
#	224870
#
# Disc length: 3199 seconds
#
# Revision: 34491932
# Submitted via:  AdeptDE 1.0
#
DISCID=cd0c7d0f
DTITLE=Countdown Mix Masters / Hot Non Stop Disco Dance Mix
TTITLE0=Ladies Night
TTITLE1=Le Freak
TTITLE2=Soul Man
TTITLE3=Disco Inferno
TTITLE4=Boogie Wonderland
TTITLE5=Get Up and Boogie
TTITLE6=Let's Get It On
TTITLE7=Mac Arther Park
TTITLE8=Let's All Chant
TTITLE9=Everlasting Love
TTITLE10=Love Is In The Air
TTITLE11=Dance Dance Dance
TTITLE12=Hot Stuff
TTITLE13=Don't Stop 'Til You Get Enough
TTITLE14=Play That Funky Music
EXTD=DISC: 1\nUPC: 056775034122\nLABEL: Madacy\nENSORECORD: 106091\n\nYEAR: 
EXTD=2000  ID3G:  17
EXTT0=PERFORMER: Countdown Mix Masters\n
EXTT1=PERFORMER: Countdown Mix Masters\n
EXTT2=PERFORMER: Countdown Mix Masters\n
EXTT3=PERFORMER: Countdown Mix Masters\n
EXTT4=PERFORMER: Countdown Mix Masters\n
EXTT5=PERFORMER: Countdown Mix Masters\n
EXTT6=PERFORMER: Countdown Mix Masters\n
EXTT7=PERFORMER: Countdown Mix Masters\n
EXTT8=PERFORMER: Countdown Mix Masters\n
EXTT9=PERFORMER: Countdown Mix Masters\n
EXTT10=PERFORMER: Countdown Mix Masters\n
EXTT11=PERFORMER: Countdown Mix Masters\n
EXTT12=PERFORMER: Countdown Mix Masters\n
EXTT13=PERFORMER: Countdown Mix Masters\n
EXTT14=PERFORMER: Countdown Mix Masters\n
PLAYORDER=
